<svg width="280" height="280" viewBox="0 0 280 280" fill="none" xmlns="http://www.w3.org/2000/svg">
<g filter="url(#filter0_b_1695_3924)">
<circle cx="139.833" cy="139.833" r="139.833" fill="white" fill-opacity="0.08"/>
<circle cx="139.833" cy="139.833" r="139.113" stroke="white" stroke-opacity="0.12" stroke-width="1.44158"/>
</g>
<g clip-path="url(#clip0_1695_3924)">
<path d="M64 140V186H86.9462C108.296 186 115.806 185.597 118.704 184.332C119.355 183.987 120.952 183.47 122.253 183.125C128.403 181.342 135.677 176.052 139.522 170.59C142.597 166.22 145.849 158.227 146.855 152.65C147.86 147.072 147.86 132.87 146.855 127.35C146.145 123.382 143.898 116.597 142.36 113.838C137.925 105.615 131.065 99.98 121.543 96.645C114.919 94.2875 111.075 94 86.9462 94H64V140ZM116.28 117.747C122.312 120.507 126.925 125.222 129.349 130.915C130.828 134.423 131.124 135.86 131.124 140C131.124 146.728 128.995 151.903 124.145 156.79C112.613 168.29 94.1613 166.852 84.8172 153.685C81.9194 149.603 80.914 146.095 80.914 140C80.914 129.88 85.4677 122.577 94.457 118.15C99.2473 115.792 101.909 115.275 107.349 115.505C111.075 115.677 112.731 116.137 116.28 117.747Z" fill="white"/>
<path d="M171.338 122.578C166.312 123.9 162.586 126.603 159.747 130.915C157.795 133.848 157.736 134.078 157.736 140.058C157.736 146.153 157.736 146.153 159.984 149.43C162.645 153.34 167.317 156.445 171.93 157.423C180.742 159.205 190.677 153.34 192.984 144.945C193.93 141.495 193.338 134.998 191.801 132.065C190.145 128.903 186.715 125.683 183.285 124.015C180.564 122.693 173.881 121.888 171.338 122.578Z" fill="white"/>
<path d="M213.624 127.925C207.414 129.075 203.57 133.675 203.57 140C203.57 147.36 208.656 152.19 216.344 152.19C220.957 152.248 224.328 150.523 226.93 147.015C228.527 144.715 228.704 144.083 228.704 140C228.704 135.918 228.527 135.285 226.93 132.985C223.973 128.96 218.71 126.948 213.624 127.925Z" fill="white"/>
</g>
<defs>
<filter id="filter0_b_1695_3924" x="-14.4158" y="-14.4158" width="308.498" height="308.499" filterUnits="userSpaceOnUse" color-interpolation-filters="sRGB">
<feFlood flood-opacity="0" result="BackgroundImageFix"/>
<feGaussianBlur in="BackgroundImageFix" stdDeviation="7.2079"/>
<feComposite in2="SourceAlpha" operator="in" result="effect1_backgroundBlur_1695_3924"/>
<feBlend mode="normal" in="SourceGraphic" in2="effect1_backgroundBlur_1695_3924" result="shape"/>
</filter>
<clipPath id="clip0_1695_3924">
<rect width="165" height="92" fill="white" transform="translate(64 94)"/>
</clipPath>
</defs>
</svg>
