<svg width="132" height="120" viewBox="0 0 132 120" fill="none" xmlns="http://www.w3.org/2000/svg">
<rect width="132" height="120" fill="white"/>
<path d="M31 59.8196V96.5918L51.8942 96.4495L72.7006 96.3071L77.7925 94.9311C88.7663 91.9893 95.7018 85.7262 100.004 74.9555C101.847 70.4954 102.637 55.8339 101.408 49.808C99.3012 39.6541 93.4192 31.4456 85.3425 27.5549C81.1285 25.5146 79.6361 25.0401 72.8762 23.5218C71.2959 23.1897 63.4826 22.9999 50.7529 22.9999H31V59.8196ZM70.2425 37.8986C79.1971 40.3659 83.6744 47.6254 83.6744 59.7247C83.6744 73.2474 78.5826 80.3171 67.6087 82.0727C65.1506 82.4523 60.0587 82.7844 56.2837 82.7844H49.4361V59.7247V36.6175L58.4785 36.8547C64.2727 37.0445 68.5744 37.3766 70.2425 37.8986Z" fill="black"/>
</svg>
