<svg width="32" height="39" viewBox="0 0 32 39" fill="none" xmlns="http://www.w3.org/2000/svg">
<path d="M0 36.6116V2.38359C0.000726227 1.95534 0.118814 1.53516 0.341894 1.16709C0.564973 0.799017 0.884832 0.4966 1.26795 0.291531C1.65106 0.0864617 2.08333 -0.0137109 2.51946 0.00150853C2.95558 0.016728 3.37951 0.146778 3.74681 0.378035L30.8795 17.4873C31.2231 17.7033 31.5058 18.0006 31.7016 18.3519C31.8974 18.7032 32 19.0972 32 19.4976C32 19.898 31.8974 20.292 31.7016 20.6433C31.5058 20.9946 31.2231 21.2919 30.8795 21.5079L3.74681 38.622C3.37951 38.8532 2.95558 38.9833 2.51946 38.9985C2.08333 39.0137 1.65106 38.9135 1.26795 38.7085C0.884832 38.5034 0.564973 38.201 0.341894 37.8329C0.118814 37.4648 0.000726227 37.0447 0 36.6164V36.6116Z" fill="#FAFAFA"/>
</svg>
