<svg width="110" height="110" viewBox="0 0 110 110" fill="none" xmlns="http://www.w3.org/2000/svg">
<path d="M39 72.6116V38.3836C39.0007 37.9553 39.1188 37.5352 39.3419 37.1671C39.565 36.799 39.8848 36.4966 40.2679 36.2915C40.6511 36.0865 41.0833 35.9863 41.5195 36.0015C41.9556 36.0167 42.3795 36.1468 42.7468 36.378L69.8795 53.4873C70.2231 53.7033 70.5058 54.0006 70.7016 54.3519C70.8974 54.7032 71 55.0972 71 55.4976C71 55.898 70.8974 56.292 70.7016 56.6433C70.5058 56.9946 70.2231 57.2919 69.8795 57.5079L42.7468 74.622C42.3795 74.8532 41.9556 74.9833 41.5195 74.9985C41.0833 75.0137 40.6511 74.9135 40.2679 74.7085C39.8848 74.5034 39.565 74.201 39.3419 73.8329C39.1188 73.4648 39.0007 73.0447 39 72.6164V72.6116Z" fill="#FAFAFA"/>
</svg>
