<svg width="129" height="48" viewBox="0 0 129 48" fill="none" xmlns="http://www.w3.org/2000/svg">
<g filter="url(#filter0_b_1070_658)">
<mask id="path-1-inside-1_1070_658" fill="white">
<path fill-rule="evenodd" clip-rule="evenodd" d="M13.9932 0.386444C6.26498 0.386444 0 6.65141 0 14.3797V33.6203C0 41.3486 6.26498 47.6136 13.9932 47.6136H103.337C111.065 47.6136 117.33 41.3486 117.33 33.6204V30.8733C117.337 30.8696 117.344 30.8658 117.35 30.8619L128.563 24.3884C129.146 24.0518 129.146 23.2103 128.563 22.8736L117.35 16.4002C117.344 16.3963 117.337 16.3924 117.33 16.3887V14.3797C117.33 6.65142 111.065 0.386444 103.337 0.386444H13.9932Z"/>
</mask>
<path fill-rule="evenodd" clip-rule="evenodd" d="M13.9932 0.386444C6.26498 0.386444 0 6.65141 0 14.3797V33.6203C0 41.3486 6.26498 47.6136 13.9932 47.6136H103.337C111.065 47.6136 117.33 41.3486 117.33 33.6204V30.8733C117.337 30.8696 117.344 30.8658 117.35 30.8619L128.563 24.3884C129.146 24.0518 129.146 23.2103 128.563 22.8736L117.35 16.4002C117.344 16.3963 117.337 16.3924 117.33 16.3887V14.3797C117.33 6.65142 111.065 0.386444 103.337 0.386444H13.9932Z" fill="white" fill-opacity="0.17"/>
<path d="M117.33 30.8733L116.912 30.1051L116.455 30.3536V30.8733H117.33ZM117.35 30.8619L117.788 31.6193L117.788 31.6193L117.35 30.8619ZM128.563 24.3884L129 25.1458L129 25.1458L128.563 24.3884ZM128.563 22.8736L129 22.1162L128.563 22.8736ZM117.35 16.4002L117.788 15.6428L117.788 15.6427L117.35 16.4002ZM117.33 16.3887H116.455V16.9085L116.912 17.1569L117.33 16.3887ZM0.874576 14.3797C0.874576 7.13442 6.74799 1.26102 13.9932 1.26102V-0.488132C5.78196 -0.488132 -0.874576 6.16839 -0.874576 14.3797H0.874576ZM0.874576 33.6203V14.3797H-0.874576V33.6203H0.874576ZM13.9932 46.739C6.748 46.739 0.874576 40.8656 0.874576 33.6203H-0.874576C-0.874576 41.8316 5.78197 48.4881 13.9932 48.4881V46.739ZM103.337 46.739H13.9932V48.4881H103.337V46.739ZM116.455 33.6204C116.455 40.8656 110.582 46.739 103.337 46.739V48.4881C111.548 48.4881 118.204 41.8316 118.204 33.6204H116.455ZM116.455 30.8733V33.6204H118.204V30.8733H116.455ZM116.913 30.1045C116.913 30.1048 116.912 30.105 116.912 30.1051L117.748 31.6416C117.761 31.6343 117.775 31.6268 117.788 31.6193L116.913 30.1045ZM128.125 23.631L116.913 30.1045L117.788 31.6193L129 25.1458L128.125 23.631ZM128.125 23.631L128.125 23.631L129 25.1458C130.166 24.4726 130.166 22.7895 129 22.1162L128.125 23.631ZM116.913 17.1576L128.125 23.631L129 22.1162L117.788 15.6428L116.913 17.1576ZM116.912 17.1569C116.912 17.1571 116.913 17.1573 116.913 17.1576L117.788 15.6427C117.775 15.6352 117.761 15.6278 117.748 15.6205L116.912 17.1569ZM116.455 14.3797V16.3887H118.204V14.3797H116.455ZM103.337 1.26102C110.582 1.26102 116.455 7.13444 116.455 14.3797H118.204C118.204 6.16841 111.548 -0.488132 103.337 -0.488132V1.26102ZM13.9932 1.26102H103.337V-0.488132H13.9932V1.26102Z" fill="white" fill-opacity="0.24" mask="url(#path-1-inside-1_1070_658)"/>
</g>
<defs>
<filter id="filter0_b_1070_658" x="-8.74576" y="-8.35932" width="146.492" height="64.7186" filterUnits="userSpaceOnUse" color-interpolation-filters="sRGB">
<feFlood flood-opacity="0" result="BackgroundImageFix"/>
<feGaussianBlur in="BackgroundImageFix" stdDeviation="4.37288"/>
<feComposite in2="SourceAlpha" operator="in" result="effect1_backgroundBlur_1070_658"/>
<feBlend mode="normal" in="SourceGraphic" in2="effect1_backgroundBlur_1070_658" result="shape"/>
</filter>
</defs>
</svg>
