<svg width="82" height="82" viewBox="0 0 82 82" fill="none" xmlns="http://www.w3.org/2000/svg">
<g filter="url(#filter0_b_1902_176)">
<circle cx="40.7803" cy="40.7803" r="40.3643" fill="white" fill-opacity="0.04"/>
<circle cx="40.7803" cy="40.7803" r="39.6435" stroke="white" stroke-opacity="0.08" stroke-width="1.44158"/>
</g>
<path d="M39.5271 48.3991H42.4103V39.7496H39.5271V48.3991ZM40.9687 36.8665C41.3771 36.8665 41.7197 36.7281 41.9965 36.4513C42.2733 36.1745 42.4112 35.8324 42.4103 35.4249C42.4103 35.0164 42.2719 34.6743 41.9951 34.3985C41.7183 34.1226 41.3762 33.9843 40.9687 33.9833C40.5602 33.9833 40.2181 34.1217 39.9423 34.3985C39.6665 34.6753 39.5281 35.0174 39.5271 35.4249C39.5271 35.8333 39.6655 36.1759 39.9423 36.4527C40.2191 36.7295 40.5612 36.8674 40.9687 36.8665ZM40.9687 55.607C37.629 54.7661 34.8718 52.8497 32.6969 49.858C30.522 46.8662 29.4351 43.5448 29.436 39.8938V31.1001L40.9687 26.7754L52.5013 31.1001V39.8938C52.5013 43.5458 51.4144 46.8677 49.2405 49.8594C47.0666 52.8512 44.3093 54.767 40.9687 55.607ZM40.9687 52.5797C43.4674 51.7868 45.5337 50.2011 47.1675 47.8225C48.8013 45.4439 49.6182 42.801 49.6182 39.8938V33.0823L40.9687 29.8387L32.3192 33.0823V39.8938C32.3192 42.801 33.1361 45.4439 34.7699 47.8225C36.4037 50.2011 38.4699 51.7868 40.9687 52.5797Z" fill="#C4C8D6"/>
<defs>
<filter id="filter0_b_1902_176" x="-13.9998" y="-13.9998" width="109.56" height="109.56" filterUnits="userSpaceOnUse" color-interpolation-filters="sRGB">
<feFlood flood-opacity="0" result="BackgroundImageFix"/>
<feGaussianBlur in="BackgroundImageFix" stdDeviation="7.2079"/>
<feComposite in2="SourceAlpha" operator="in" result="effect1_backgroundBlur_1902_176"/>
<feBlend mode="normal" in="SourceGraphic" in2="effect1_backgroundBlur_1902_176" result="shape"/>
</filter>
</defs>
</svg>
