<svg width="82" height="82" viewBox="0 0 82 82" fill="none" xmlns="http://www.w3.org/2000/svg">
<g filter="url(#filter0_b_1695_3937)">
<circle cx="40.9038" cy="41.2236" r="40.3643" fill="white" fill-opacity="0.04"/>
<circle cx="40.9038" cy="41.2236" r="39.6435" stroke="white" stroke-opacity="0.08" stroke-width="1.44158"/>
</g>
<path d="M53.8779 56.3601H27.9295C27.3561 56.3595 26.8065 56.1315 26.4011 55.7261C25.9957 55.3207 25.7677 54.7711 25.7671 54.1977V28.2493C25.7677 27.676 25.9957 27.1263 26.4011 26.7209C26.8065 26.3155 27.3561 26.0875 27.9295 26.0869H53.8779C54.4512 26.0875 55.0009 26.3155 55.4063 26.7209C55.8117 27.1263 56.0397 27.676 56.0403 28.2493V54.1977C56.0397 54.7711 55.8117 55.3207 55.4063 55.7261C55.0009 56.1315 54.4512 56.3595 53.8779 56.3601ZM27.9295 28.2493V54.1977H53.8779V28.2493H27.9295Z" fill="#C4C8D6"/>
<path d="M37.6603 31.4932H39.8227V39.0615H37.6603V31.4932ZM32.2544 31.4932H34.4168V39.0615H32.2544V31.4932ZM47.391 39.0615H45.2286C44.6553 39.0609 44.1056 38.8329 43.7002 38.4275C43.2948 38.0221 43.0668 37.4724 43.0662 36.8991V33.6555C43.0668 33.0822 43.2948 32.5325 43.7002 32.1271C44.1056 31.7217 44.6553 31.4937 45.2286 31.4932H47.391C47.9643 31.4937 48.514 31.7217 48.9194 32.1271C49.3248 32.5325 49.5528 33.0822 49.5534 33.6555V36.8991C49.5528 37.4724 49.3248 38.0221 48.9194 38.4275C48.514 38.8329 47.9643 39.0609 47.391 39.0615ZM45.2286 33.6555V36.8991H47.391V33.6555H45.2286ZM47.391 43.3862H49.5534V50.9545H47.391V43.3862ZM32.2544 43.3862H34.4168V50.9545H32.2544V43.3862ZM41.9851 50.9545H39.8227C39.2494 50.9539 38.6997 50.7259 38.2943 50.3205C37.8889 49.9151 37.6609 49.3655 37.6603 48.7921V45.5486C37.6609 44.9753 37.8889 44.4256 38.2943 44.0202C38.6997 43.6148 39.2494 43.3868 39.8227 43.3862H41.9851C42.5584 43.3868 43.1081 43.6148 43.5135 44.0202C43.9189 44.4256 44.1469 44.9753 44.1474 45.5486V48.7921C44.1469 49.3655 43.9189 49.9151 43.5135 50.3205C43.1081 50.7259 42.5584 50.9539 41.9851 50.9545ZM39.8227 45.5486V48.7921H41.9851V45.5486H39.8227Z" fill="#C4C8D6"/>
<defs>
<filter id="filter0_b_1695_3937" x="-13.8763" y="-13.5564" width="109.56" height="109.56" filterUnits="userSpaceOnUse" color-interpolation-filters="sRGB">
<feFlood flood-opacity="0" result="BackgroundImageFix"/>
<feGaussianBlur in="BackgroundImageFix" stdDeviation="7.2079"/>
<feComposite in2="SourceAlpha" operator="in" result="effect1_backgroundBlur_1695_3937"/>
<feBlend mode="normal" in="SourceGraphic" in2="effect1_backgroundBlur_1695_3937" result="shape"/>
</filter>
</defs>
</svg>
